<?xml version="1.0"?>
<svg version="1.1" id="圖層_1" xmlns="http://www.w3.org/2000/svg" x="0" y="0" viewBox="0 0 100 100" xml:space="preserve"><path d="M41.6 18.9L11.3 71.4c-3.7 6.5.9 14.6 8.4 14.6h60.6c7.5 0 12.1-8.1 8.4-14.6L58.4 18.9c-3.7-6.4-13.1-6.4-16.8 0z" fill="#fff" stroke="#e15b64" stroke-width="9" stroke-miterlimit="10"/><circle cx="50" cy="69.4" r="5.4" fill="#333"/><path d="M55.4 43.8c0 6-1.6 11.3-3.1 14.9-.8 2.1-3.8 2.1-4.7 0-1.5-3.6-3.1-9-3.1-14.9 0-8.9 2.4-11.9 5.4-11.9s5.5 3 5.5 11.9z" fill="#333"/><metadata xmlns:d="https://loading.io/stock/"><d:name>caution</d:name><d:tags>hint,note,warning,danger,reminder,sign,exclamation,caution,transportation</d:tags><d:license>by</d:license><d:slug>1t5sok</d:slug></metadata></svg>